# xmcd
#
# Track frame offsets: 
#        150
#        12096
#        37302
#        49734
#        73484
#        88234
#        109959
#        125271
#        144131
#        160744
#        184395
#        197405
#        216709
#        241542
#        249784
#        264557
#        278307
#        296354
#
# Disc length: 4158 seconds
#
# Revision: 6
# Processed by: cddbd v1.5.2PL0 Copyright (c) Steve Scherf et al.
# Submitted via: ExactAudioCopyFreeDBPlugin 1.0
#
DISCID=05103c12
DTITLE=B.B. King - 1999 - His Definitive Greatest Hits Cd 2
DYEAR=1999
DGENRE=Blues
TTITLE0=Help The Poor
TTITLE1=So Excited
TTITLE2=Broken Heart
TTITLE3=Ghetto Woman
TTITLE4=Ain't Nobody Home
TTITLE5=Darlin' You Know I Love You
TTITLE6=In The Midnight Hour
TTITLE7=Into The Night
TTITLE8=My Lucille
TTITLE9=The Blues Come Over Me
TTITLE10=Since I Met You Baby
TTITLE11=I'm Moving On
TTITLE12=Let The Good Times Roll [Live]
TTITLE13=Woke Up This Mornin' [Live]
TTITLE14=Three O'Clock Blues [Live]
TTITLE15=Please Love Me [Live]
TTITLE16=Caldonia [Live]
TTITLE17=Rock Me Baby [Live]
EXTD=
EXTT0=
EXTT1=
EXTT2=
EXTT3=
EXTT4=
EXTT5=
EXTT6=
EXTT7=
EXTT8=
EXTT9=
EXTT10=
EXTT11=
EXTT12=
EXTT13=
EXTT14=
EXTT15=
EXTT16=
EXTT17=
PLAYORDER=
